<mxfile host="app.diagrams.net" modified="2023-05-28T17:18:33.984Z" agent="Mozilla/5.0 (Macintosh; Intel Mac OS X 10_15_7) AppleWebKit/537.36 (KHTML, like Gecko) Chrome/113.0.0.0 Safari/537.36" version="21.3.3" etag="9byQqS_AT3nutjvhfz4P" type="github">
  <diagram name="第 1 页" id="AVeitkVFInF4Xy_BO3cl">
    <mxGraphModel>
      <root>
        <mxCell id="0" />
        <mxCell id="1" parent="0" />
      </root>
    </mxGraphModel>
  </diagram>
</mxfile>
